<svg width="24" height="24" viewBox="0 0 24 24" fill="none" xmlns="http://www.w3.org/2000/svg">
<g clip-path="url(#clip0_3013_112)">
<path d="M21 3H3C1.34325 3 0 4.34325 0 6V18C0 19.6567 1.34325 21 3 21H21C22.6567 21 24 19.6567 24 18V6C24 4.34325 22.6567 3 21 3ZM16.062 11.0054L22.4121 5.56345C22.4561 5.70408 22.5 5.8447 22.5 6V18C22.5 18.104 22.4604 18.1963 22.44 18.2944L16.062 11.0054ZM21 4.5C21.0996 4.5 21.1875 4.53811 21.2812 4.55714L12 12.5127L2.71875 4.55714C2.8125 4.53811 2.90039 4.5 3 4.5H21ZM1.55934 18.293C1.53881 18.1948 1.5 18.104 1.5 18V6C1.5 5.8447 1.54467 5.70408 1.58864 5.56345L7.93655 11.0039L1.55934 18.293ZM3 19.5C2.84841 19.5 2.71069 19.456 2.57227 19.4136L9.07617 11.9809L11.5122 14.0683C11.6521 14.19 11.8264 14.25 12 14.25C12.1736 14.25 12.3479 14.19 12.4878 14.0684L14.9238 11.981L21.4277 19.4136C21.2901 19.456 21.1523 19.5 21 19.5H3Z" fill="#2337B9"/>
</g>
<defs>
<clipPath id="clip0_3013_112">
<rect width="24" height="24" fill="white"/>
</clipPath>
</defs>
</svg>
