<svg width="24" height="24" viewBox="0 0 24 24" fill="none" xmlns="http://www.w3.org/2000/svg">
<path fill-rule="evenodd" clip-rule="evenodd" d="M23.5576 2.14487C23.7306 2.29172 23.8076 2.52248 23.7576 2.74383L19.4907 21.6399C19.4443 21.8461 19.2943 22.0134 19.0945 22.0821C18.8948 22.1509 18.6737 22.1112 18.5102 21.9775L12.3697 16.9534L9.67617 21.8017C9.55645 22.0173 9.31868 22.1394 9.07375 22.1112C8.82882 22.0832 8.62496 21.9102 8.55723 21.6732L6.22112 13.4968L0.49003 12.3506C0.226032 12.2978 0.0279387 12.078 0.00270312 11.81C-0.0225446 11.542 0.131051 11.2891 0.380554 11.1879L22.9341 2.04467C23.1443 1.95942 23.3846 1.99802 23.5576 2.14487ZM2.7228 11.5539L6.82465 12.3742C7.04846 12.419 7.22851 12.585 7.29122 12.8045L9.32516 19.9233L11.6582 15.7237C11.746 15.5659 11.8992 15.4549 12.0766 15.421C12.254 15.3871 12.4373 15.4336 12.5771 15.5479L18.5189 20.4094L22.3118 3.61245L2.7228 11.5539Z" fill="#2337B9"/>
<path fill-rule="evenodd" clip-rule="evenodd" d="M23.6789 2.28485C23.8582 2.56974 23.7728 2.94609 23.4879 3.12545L7.02987 13.4879C6.74499 13.6673 6.36863 13.5817 6.18927 13.2968C6.0099 13.0119 6.09543 12.6356 6.38031 12.4562L22.8383 2.09381C23.1231 1.91444 23.4995 1.99997 23.6789 2.28485Z" fill="#2337B9"/>
<path fill-rule="evenodd" clip-rule="evenodd" d="M23.549 2.13781C23.8097 2.35098 23.8481 2.73501 23.6349 2.99556L12.6629 16.4057C12.4497 16.6664 12.0656 16.7048 11.8051 16.4915C11.5446 16.2783 11.5062 15.8943 11.7193 15.6338L22.6913 2.22359C22.9045 1.96303 23.2885 1.92462 23.549 2.13781Z" fill="#2337B9"/>
</svg>
