<svg width="24" height="24" viewBox="0 0 24 24" fill="none" xmlns="http://www.w3.org/2000/svg">
<g clip-path="url(#clip0_3013_118)">
<path d="M11.3986 0.00373641C9.4726 0.0269864 5.33185 0.343486 3.01585 2.46824C1.2931 4.17524 0.691604 6.69899 0.621104 9.81974C0.562604 12.9292 0.492104 18.7687 6.12085 20.3587V22.7805C6.12085 22.7805 6.08561 23.7495 6.7261 23.9482C7.51511 24.198 7.96435 23.4525 8.71436 22.6515L10.1131 21.0697C13.9644 21.39 16.9141 20.652 17.2539 20.5425C18.0354 20.2927 22.4371 19.7302 23.1564 13.89C23.8944 7.85849 22.7971 4.05824 20.8164 2.33924H20.8044C20.2066 1.78874 17.8044 0.0382364 12.4374 0.0187364C12.4374 0.0187364 12.0391 -0.00751359 11.3986 0.00373641ZM11.4646 1.69949C12.0114 1.69574 12.3436 1.71899 12.3436 1.71899C16.8864 1.73099 19.0546 3.09824 19.5661 3.55874C21.2341 4.98824 22.0936 8.41424 21.4644 13.4497C20.8666 18.3322 17.2966 18.6412 16.6359 18.852C16.3546 18.942 13.7566 19.5825 10.4836 19.3717C10.4836 19.3717 8.0461 22.3132 7.2841 23.0707C7.16335 23.2035 7.02235 23.2425 6.93235 23.223C6.80335 23.1915 6.76435 23.0317 6.77185 22.8127L6.7951 18.7935C2.02136 17.4735 2.3026 12.4927 2.3536 9.89099C2.4121 7.28924 2.90035 5.16074 4.35385 3.71924C6.3106 1.94999 9.8266 1.71149 11.4631 1.69949H11.4646ZM11.8246 4.30049C11.6604 4.29674 11.5239 4.43324 11.5239 4.59749C11.5239 4.76549 11.6604 4.89824 11.8246 4.89824C13.3284 4.87124 14.7781 5.44124 15.8559 6.48824C16.9456 7.54649 17.4766 8.96849 17.4969 10.8277C17.4969 10.992 17.6296 11.1285 17.7976 11.1285V11.1165C17.9619 11.1165 18.0984 10.9837 18.0984 10.8195C18.1726 9.05024 17.5164 7.33124 16.2856 6.05774C15.0984 4.89749 13.5939 4.29974 11.8246 4.29974V4.30049ZM7.87135 4.98824C7.6606 4.95674 7.4416 5.00024 7.25785 5.10899H7.2421C6.8356 5.34749 6.45685 5.64824 6.0976 6.05024C5.82385 6.36674 5.67535 6.68699 5.63635 6.99524C5.6131 7.17899 5.62885 7.36274 5.6836 7.53824L5.7031 7.55024C6.01135 8.45624 6.4141 9.32774 6.90611 10.1482C7.5391 11.3002 8.31985 12.3667 9.2266 13.32L9.2536 13.359L9.29636 13.3905L9.32335 13.422L9.35485 13.449C10.3119 14.3595 11.3784 15.1402 12.5349 15.7807C13.8549 16.4992 14.6559 16.839 15.1366 16.98V16.9875C15.2776 17.0302 15.4059 17.0497 15.5349 17.0497C15.9451 17.0182 16.3321 16.8547 16.6366 16.5772C17.0274 16.2255 17.3356 15.8392 17.5666 15.429V15.4215C17.7969 14.988 17.7189 14.5777 17.3866 14.3002C16.7229 13.7182 15.9999 13.2022 15.2379 12.7575C14.7264 12.48 14.2066 12.648 13.9959 12.9292L13.5466 13.4955C13.3164 13.7767 12.8979 13.7377 12.8979 13.7377L12.8859 13.7452C9.7651 12.948 8.9326 9.78824 8.9326 9.78824C8.9326 9.78824 8.8936 9.35849 9.18235 9.13949L9.74485 8.68649C10.0141 8.46749 10.2016 7.94849 9.91286 7.43624C9.4711 6.67049 8.95585 5.95199 8.37385 5.28749C8.2486 5.13149 8.06935 5.02574 7.86985 4.98674L7.87135 4.98824ZM12.3436 5.87924C11.9454 5.87924 11.9454 6.48074 12.3474 6.48074C13.3471 6.49649 14.3004 6.91049 14.9956 7.62899C15.6286 8.32799 15.9564 9.25799 15.8941 10.1992C15.8979 10.3635 16.0306 10.4962 16.1949 10.4962L16.2069 10.512C16.3711 10.512 16.5076 10.3755 16.5076 10.2112C16.5346 9.01949 16.1641 8.01974 15.4374 7.21874C14.7069 6.41774 13.6876 5.96849 12.3864 5.87924C12.3706 5.87924 12.3594 5.87924 12.3436 5.87924ZM12.8364 7.49624C12.4261 7.48424 12.4104 8.09774 12.8169 8.10974C13.8054 8.16074 14.2854 8.66024 14.3484 9.68774C14.3521 9.85199 14.4849 9.98099 14.6454 9.98099H14.6574C14.8254 9.97349 14.9581 9.82874 14.9461 9.66074C14.8756 8.32124 14.1451 7.56674 12.8484 7.49699C12.8446 7.49699 12.8409 7.49699 12.8364 7.49699V7.49624Z" fill="#2337B9"/>
</g>
<defs>
<clipPath id="clip0_3013_118">
<rect width="24" height="24" fill="white"/>
</clipPath>
</defs>
</svg>
